<svg xmlns="http://www.w3.org/2000/svg" xmlns:xlink="http://www.w3.org/1999/xlink" width="200" zoomAndPan="magnify" viewBox="0 0 150 149.999998" height="200" preserveAspectRatio="xMidYMid meet" version="1.0"><defs><clipPath id="cfa8fe870e"><path d="M 3.082031 13.933594 L 147 13.933594 L 147 136.183594 L 3.082031 136.183594 Z M 3.082031 13.933594 " clip-rule="nonzero"/></clipPath><clipPath id="9102b628d7"><path d="M 146.914062 68.210938 L 146.914062 65.355469 L 144.078125 65.046875 C 143.3125 64.96875 135.132812 64.148438 124.535156 65.738281 L 124.535156 44.910156 L 120.941406 45.367188 C 115.003906 46.140625 109.496094 47.277344 104.40625 48.746094 C 98.871094 37.003906 89.722656 25.914062 77.003906 15.609375 L 75 13.980469 L 72.996094 15.609375 C 60.277344 25.914062 51.128906 37.003906 45.59375 48.746094 C 40.503906 47.277344 34.996094 46.140625 29.058594 45.367188 L 25.464844 44.910156 L 25.464844 65.738281 C 14.867188 64.148438 6.6875 64.96875 5.921875 65.046875 L 3.085938 65.355469 L 3.085938 68.210938 C 3.085938 91.640625 9.378906 109.472656 21.808594 121.230469 C 32.089844 130.953125 46.230469 136.027344 62.917969 136.027344 C 64.226562 136.027344 65.5625 135.988281 66.914062 135.929688 L 71.484375 135.929688 L 70.578125 132.003906 C 68.320312 122.226562 64.578125 98.597656 75 79.34375 C 85.421875 98.597656 81.679688 122.226562 79.421875 132.003906 L 78.515625 135.929688 L 83.085938 135.929688 C 84.4375 135.984375 85.773438 136.027344 87.082031 136.027344 C 103.769531 136.027344 117.914062 130.953125 128.191406 121.230469 C 140.621094 109.472656 146.914062 91.640625 146.914062 68.210938 Z M 118.175781 52.199219 L 118.175781 66.953125 C 115.601562 67.550781 112.945312 68.296875 110.285156 69.242188 C 109.71875 64.292969 108.574219 59.425781 106.855469 54.664062 C 110.402344 53.667969 114.167969 52.835938 118.175781 52.199219 Z M 31.824219 52.199219 C 35.828125 52.835938 39.597656 53.671875 43.144531 54.664062 C 41.425781 59.429688 40.28125 64.292969 39.714844 69.246094 C 37.054688 68.300781 34.398438 67.554688 31.824219 66.957031 Z M 26.179688 116.601562 C 15.589844 106.59375 9.984375 91.328125 9.484375 71.207031 C 12.785156 71.105469 18.644531 71.160156 25.464844 72.296875 L 25.464844 91.183594 C 25.464844 105.628906 39.773438 120.066406 53.867188 129.074219 C 44.558594 127.851562 34.453125 124.441406 26.179688 116.601562 Z M 31.824219 91.1875 L 31.824219 73.632812 C 34.289062 74.269531 36.804688 75.054688 39.320312 76.035156 C 39.191406 95.136719 47.445312 111.441406 54.695312 122.039062 C 42.253906 113.429688 31.824219 101.277344 31.824219 91.1875 Z M 62.375 121.746094 C 55.617188 112.640625 46.539062 97.144531 45.734375 78.984375 C 52.261719 82.496094 58.390625 87.566406 63.019531 94.851562 C 61.222656 104.589844 61.492188 114.105469 62.375 121.746094 Z M 65.03125 86.710938 C 59.503906 79.820312 52.777344 75.054688 45.863281 71.78125 C 46.28125 66.628906 47.398438 61.574219 49.207031 56.617188 C 58.890625 60.179688 66.546875 65.269531 72.085938 71.867188 C 68.917969 76.589844 66.636719 81.621094 65.03125 86.710938 Z M 75 65.570312 C 69.023438 59.246094 61.230469 54.296875 51.707031 50.761719 C 56.5625 40.742188 64.339844 31.203125 75 22.203125 C 85.660156 31.203125 93.4375 40.742188 98.292969 50.761719 C 88.769531 54.296875 80.976562 59.242188 75 65.570312 Z M 77.910156 71.867188 C 83.449219 65.269531 91.109375 60.179688 100.789062 56.617188 C 102.601562 61.570312 103.714844 66.628906 104.136719 71.78125 C 97.21875 75.054688 90.492188 79.820312 84.96875 86.710938 C 83.363281 81.621094 81.082031 76.589844 77.910156 71.867188 Z M 86.980469 94.851562 C 91.605469 87.570312 97.738281 82.496094 104.265625 78.984375 C 103.460938 97.148438 94.382812 112.640625 87.625 121.746094 C 88.507812 114.105469 88.777344 104.589844 86.980469 94.851562 Z M 110.679688 76.035156 C 113.191406 75.054688 115.710938 74.269531 118.175781 73.632812 L 118.175781 91.1875 C 118.175781 101.277344 107.746094 113.429688 95.304688 122.042969 C 102.554688 111.441406 110.804688 95.136719 110.679688 76.035156 Z M 123.820312 116.601562 C 115.546875 124.441406 105.4375 127.855469 96.132812 129.074219 C 110.226562 120.066406 124.535156 105.632812 124.535156 91.183594 L 124.535156 72.296875 C 131.355469 71.160156 137.214844 71.101562 140.515625 71.207031 C 140.015625 91.328125 134.410156 106.59375 123.820312 116.601562 Z M 123.820312 116.601562 " clip-rule="nonzero"/></clipPath></defs><g clip-path="url(#cfa8fe870e)"><g clip-path="url(#9102b628d7)"><path fill="#efede7" d="M 3.085938 13.980469 L 3.085938 136.027344 L 146.914062 136.027344 L 146.914062 13.980469 Z M 3.085938 13.980469 " fill-opacity="1" fill-rule="nonzero"/></g></g></svg>